<svg width="20" height="20" viewBox="0 0 20 20" fill="none" xmlns="http://www.w3.org/2000/svg">
<path d="M16.875 3.125H3.125C2.79348 3.125 2.47554 3.2567 2.24112 3.49112C2.0067 3.72554 1.875 4.04348 1.875 4.375V15.625C1.875 15.9565 2.0067 16.2745 2.24112 16.5089C2.47554 16.7433 2.79348 16.875 3.125 16.875H16.875C17.2065 16.875 17.5245 16.7433 17.7589 16.5089C17.9933 16.2745 18.125 15.9565 18.125 15.625V4.375C18.125 4.04348 17.9933 3.72554 17.7589 3.49112C17.5245 3.2567 17.2065 3.125 16.875 3.125ZM12.1875 6.875C12.3729 6.875 12.5542 6.92998 12.7083 7.033C12.8625 7.13601 12.9827 7.28243 13.0536 7.45373C13.1246 7.62504 13.1432 7.81354 13.107 7.9954C13.0708 8.17725 12.9815 8.3443 12.8504 8.47541C12.7193 8.60652 12.5523 8.69581 12.3704 8.73199C12.1885 8.76816 12 8.74959 11.8287 8.67864C11.6574 8.60768 11.511 8.48752 11.408 8.33335C11.305 8.17918 11.25 7.99792 11.25 7.8125C11.25 7.56386 11.3488 7.3254 11.5246 7.14959C11.7004 6.97377 11.9389 6.875 12.1875 6.875ZM16.875 15.625H3.125V12.5539L6.74531 8.93281C6.80336 8.8747 6.87229 8.8286 6.94816 8.79715C7.02404 8.7657 7.10537 8.74951 7.1875 8.74951C7.26963 8.74951 7.35096 8.7657 7.42684 8.79715C7.50271 8.8286 7.57164 8.8747 7.62969 8.93281L12.8906 14.1922C13.0079 14.3095 13.167 14.3753 13.3328 14.3753C13.4987 14.3753 13.6577 14.3095 13.775 14.1922C13.8923 14.0749 13.9582 13.9159 13.9582 13.75C13.9582 13.5841 13.8923 13.4251 13.775 13.3078L12.3953 11.9289L13.5156 10.8078C13.6328 10.6907 13.7917 10.6249 13.9574 10.6249C14.1231 10.6249 14.282 10.6907 14.3992 10.8078L16.875 13.2867V15.625Z" fill="#007F5B"/>
</svg>
