<svg width="124" height="15" viewBox="0 0 124 15" fill="none" xmlns="http://www.w3.org/2000/svg">
<path d="M9.30008 10.52C9.30008 11.36 9.09341 12.0933 8.68008 12.72C8.26675 13.3466 7.66675 13.8333 6.88008 14.18C6.10675 14.5133 5.16008 14.68 4.04008 14.68C3.54675 14.68 3.06008 14.6466 2.58008 14.58C2.11341 14.5133 1.66008 14.42 1.22008 14.3C0.793412 14.1666 0.386745 14.0066 7.82013e-05 13.82V11C0.680078 11.2933 1.38008 11.5666 2.10008 11.82C2.83341 12.06 3.56008 12.18 4.28008 12.18C4.77341 12.18 5.16675 12.1133 5.46008 11.98C5.76674 11.8466 5.98675 11.6666 6.12008 11.44C6.26675 11.2133 6.34008 10.9533 6.34008 10.66C6.34008 10.3 6.21341 9.99331 5.96008 9.73998C5.72008 9.48665 5.39341 9.25331 4.98008 9.03998C4.56674 8.81331 4.09341 8.57331 3.56008 8.31998C3.22675 8.15998 2.86675 7.97331 2.48008 7.75998C2.09341 7.53331 1.72008 7.25998 1.36008 6.93998C1.01341 6.60665 0.726745 6.20665 0.500078 5.73998C0.273411 5.27331 0.160078 4.71331 0.160078 4.05998C0.160078 3.20665 0.353412 2.47998 0.740078 1.87998C1.14008 1.26665 1.70008 0.799979 2.42008 0.47998C3.15341 0.15998 4.01341 -2.02656e-05 5.00008 -2.02656e-05C5.74675 -2.02656e-05 6.45341 0.0866465 7.12008 0.25998C7.80008 0.433313 8.50675 0.67998 9.24008 0.99998L8.26008 3.35998C7.60675 3.09331 7.02008 2.88665 6.50008 2.73998C5.98008 2.59331 5.44675 2.51998 4.90008 2.51998C4.52675 2.51998 4.20675 2.57998 3.94008 2.69998C3.67341 2.81998 3.46674 2.98665 3.32008 3.19998C3.18674 3.41331 3.12008 3.66665 3.12008 3.95998C3.12008 4.29331 3.22008 4.57998 3.42008 4.81998C3.62008 5.04665 3.92008 5.26665 4.32008 5.47998C4.72008 5.69331 5.22008 5.94665 5.82008 6.23998C6.55341 6.58665 7.17341 6.94665 7.68008 7.31998C8.20008 7.69331 8.60008 8.13331 8.88008 8.63998C9.16008 9.14665 9.30008 9.77331 9.30008 10.52ZM24.4757 3.35998C25.7157 3.35998 26.649 3.67998 27.2757 4.31998C27.9157 4.94665 28.2357 5.95998 28.2357 7.35998V14.48H25.2557V8.09998C25.2557 7.31331 25.1224 6.72665 24.8557 6.33998C24.589 5.93998 24.1757 5.73998 23.6157 5.73998C22.829 5.73998 22.269 6.01998 21.9357 6.57998C21.6024 7.13998 21.4357 7.94665 21.4357 8.99998V14.48H18.4557V8.09998C18.4557 7.57998 18.3957 7.14665 18.2757 6.79998C18.1557 6.45331 17.9757 6.19331 17.7357 6.01998C17.4957 5.83331 17.189 5.73998 16.8157 5.73998C16.269 5.73998 15.8357 5.87998 15.5157 6.15998C15.1957 6.43998 14.969 6.84665 14.8357 7.37998C14.7024 7.91331 14.6357 8.56665 14.6357 9.33998V14.48H11.6557V3.55998H13.9357L14.3357 4.95998H14.4957C14.7224 4.58665 15.0024 4.28665 15.3357 4.05998C15.669 3.81998 16.0357 3.64665 16.4357 3.53998C16.849 3.41998 17.2624 3.35998 17.6757 3.35998C18.4757 3.35998 19.1557 3.49331 19.7157 3.75998C20.2757 4.01331 20.7024 4.41331 20.9957 4.95998H21.2557C21.589 4.39998 22.049 3.99331 22.6357 3.73998C23.2357 3.48665 23.849 3.35998 24.4757 3.35998ZM35.7841 3.33998C37.2508 3.33998 38.3708 3.65998 39.1441 4.29998C39.9308 4.92665 40.3241 5.89331 40.3241 7.19998V14.48H38.2441L37.6641 13H37.5841C37.2775 13.3866 36.9575 13.7066 36.6241 13.96C36.3041 14.2133 35.9308 14.3933 35.5041 14.5C35.0908 14.62 34.5775 14.68 33.9641 14.68C33.3241 14.68 32.7441 14.56 32.2241 14.32C31.7175 14.0666 31.3175 13.6866 31.0241 13.18C30.7308 12.66 30.5841 12.0066 30.5841 11.22C30.5841 10.06 30.9908 9.20665 31.8041 8.65998C32.6175 8.09998 33.8375 7.79331 35.4641 7.73998L37.3641 7.67998V7.19998C37.3641 6.62665 37.2108 6.20665 36.9041 5.93998C36.6108 5.67331 36.1975 5.53998 35.6641 5.53998C35.1308 5.53998 34.6108 5.61998 34.1041 5.77998C33.5975 5.92665 33.0908 6.11331 32.5841 6.33998L31.6041 4.31998C32.1908 4.01331 32.8375 3.77331 33.5441 3.59998C34.2641 3.42665 35.0108 3.33998 35.7841 3.33998ZM36.2041 9.45998C35.2441 9.48665 34.5775 9.65998 34.2041 9.97998C33.8308 10.3 33.6441 10.72 33.6441 11.24C33.6441 11.6933 33.7775 12.02 34.0441 12.22C34.3108 12.4066 34.6575 12.5 35.0841 12.5C35.7241 12.5 36.2641 12.3133 36.7041 11.94C37.1441 11.5533 37.3641 11.0133 37.3641 10.32V9.41998L36.2041 9.45998ZM49.4745 3.35998C49.6211 3.35998 49.7945 3.36665 49.9945 3.37998C50.1945 3.39331 50.3545 3.41331 50.4745 3.43998L50.2545 6.23998C50.1611 6.21331 50.0211 6.19331 49.8345 6.17998C49.6611 6.15331 49.5078 6.13998 49.3745 6.13998C48.9878 6.13998 48.6145 6.19331 48.2545 6.29998C47.8945 6.39331 47.5678 6.54665 47.2745 6.75998C46.9945 6.97331 46.7678 7.25998 46.5945 7.61998C46.4345 7.96665 46.3545 8.39998 46.3545 8.91998V14.48H43.3745V3.55998H45.6345L46.0745 5.39998H46.2145C46.4278 5.02665 46.6945 4.68665 47.0145 4.37998C47.3345 4.07331 47.7011 3.82665 48.1145 3.63998C48.5411 3.45331 48.9945 3.35998 49.4745 3.35998ZM57.0565 12.3C57.3898 12.3 57.7098 12.2666 58.0165 12.2C58.3232 12.1333 58.6298 12.0533 58.9365 11.96V14.18C58.6165 14.3133 58.2165 14.4266 57.7365 14.52C57.2698 14.6266 56.7565 14.68 56.1965 14.68C55.5432 14.68 54.9565 14.5733 54.4365 14.36C53.9298 14.1466 53.5232 13.78 53.2165 13.26C52.9232 12.7266 52.7765 11.9933 52.7765 11.06V5.79998H51.3565V4.53998L52.9965 3.53998L53.8565 1.23998H55.7565V3.55998H58.8165V5.79998H55.7565V11.06C55.7565 11.4733 55.8765 11.7866 56.1165 12C56.3565 12.2 56.6698 12.3 57.0565 12.3Z" fill="#171A17"/>
<path d="M67.4284 2.51998C66.855 2.51998 66.3417 2.63331 65.8884 2.85998C65.4484 3.08665 65.075 3.41331 64.7684 3.83998C64.4617 4.25331 64.2284 4.75998 64.0684 5.35998C63.9217 5.95998 63.8484 6.63331 63.8484 7.37998C63.8484 8.39331 63.9684 9.25998 64.2084 9.97998C64.4617 10.6866 64.855 11.2266 65.3884 11.6C65.9217 11.9733 66.6017 12.16 67.4284 12.16C68.015 12.16 68.595 12.0933 69.1684 11.96C69.755 11.8266 70.3884 11.64 71.0684 11.4V13.94C70.4417 14.1933 69.8217 14.38 69.2084 14.5C68.595 14.62 67.9084 14.68 67.1484 14.68C65.6817 14.68 64.4684 14.38 63.5084 13.78C62.5617 13.1666 61.8617 12.3133 61.4084 11.22C60.955 10.1133 60.7284 8.82665 60.7284 7.35998C60.7284 6.27998 60.875 5.29331 61.1684 4.39998C61.4617 3.49331 61.8884 2.71331 62.4484 2.05998C63.0217 1.40665 63.7217 0.89998 64.5484 0.53998C65.3884 0.17998 66.3484 -2.02656e-05 67.4284 -2.02656e-05C68.135 -2.02656e-05 68.8417 0.0933131 69.5484 0.27998C70.2684 0.453313 70.955 0.693313 71.6084 0.99998L70.6284 3.45998C70.095 3.20665 69.555 2.98665 69.0084 2.79998C68.475 2.61331 67.9484 2.51998 67.4284 2.51998ZM78.3427 3.33998C79.8094 3.33998 80.9294 3.65998 81.7027 4.29998C82.4894 4.92665 82.8827 5.89331 82.8827 7.19998V14.48H80.8027L80.2227 13H80.1427C79.8361 13.3866 79.5161 13.7066 79.1827 13.96C78.8627 14.2133 78.4894 14.3933 78.0627 14.5C77.6494 14.62 77.1361 14.68 76.5227 14.68C75.8827 14.68 75.3027 14.56 74.7827 14.32C74.2761 14.0666 73.8761 13.6866 73.5827 13.18C73.2894 12.66 73.1427 12.0066 73.1427 11.22C73.1427 10.06 73.5494 9.20665 74.3627 8.65998C75.1761 8.09998 76.3961 7.79331 78.0227 7.73998L79.9227 7.67998V7.19998C79.9227 6.62665 79.7694 6.20665 79.4627 5.93998C79.1694 5.67331 78.7561 5.53998 78.2227 5.53998C77.6894 5.53998 77.1694 5.61998 76.6627 5.77998C76.1561 5.92665 75.6494 6.11331 75.1427 6.33998L74.1627 4.31998C74.7494 4.01331 75.3961 3.77331 76.1027 3.59998C76.8227 3.42665 77.5694 3.33998 78.3427 3.33998ZM78.7627 9.45998C77.8027 9.48665 77.1361 9.65998 76.7627 9.97998C76.3894 10.3 76.2027 10.72 76.2027 11.24C76.2027 11.6933 76.3361 12.02 76.6027 12.22C76.8694 12.4066 77.2161 12.5 77.6427 12.5C78.2827 12.5 78.8227 12.3133 79.2627 11.94C79.7027 11.5533 79.9227 11.0133 79.9227 10.32V9.41998L78.7627 9.45998ZM92.033 3.35998C92.1797 3.35998 92.353 3.36665 92.553 3.37998C92.753 3.39331 92.913 3.41331 93.033 3.43998L92.813 6.23998C92.7197 6.21331 92.5797 6.19331 92.393 6.17998C92.2197 6.15331 92.0664 6.13998 91.933 6.13998C91.5464 6.13998 91.173 6.19331 90.813 6.29998C90.453 6.39331 90.1264 6.54665 89.833 6.75998C89.553 6.97331 89.3264 7.25998 89.153 7.61998C88.993 7.96665 88.913 8.39998 88.913 8.91998V14.48H85.933V3.55998H88.193L88.633 5.39998H88.773C88.9864 5.02665 89.253 4.68665 89.573 4.37998C89.893 4.07331 90.2597 3.82665 90.673 3.63998C91.0997 3.45331 91.553 3.35998 92.033 3.35998ZM99.6151 12.3C99.9484 12.3 100.268 12.2666 100.575 12.2C100.882 12.1333 101.188 12.0533 101.495 11.96V14.18C101.175 14.3133 100.775 14.4266 100.295 14.52C99.8284 14.6266 99.3151 14.68 98.7551 14.68C98.1017 14.68 97.5151 14.5733 96.9951 14.36C96.4884 14.1466 96.0817 13.78 95.7751 13.26C95.4817 12.7266 95.3351 11.9933 95.3351 11.06V5.79998H93.9151V4.53998L95.5551 3.53998L96.4151 1.23998H98.3151V3.55998H101.375V5.79998H98.3151V11.06C98.3151 11.4733 98.4351 11.7866 98.6751 12C98.9151 12.2 99.2284 12.3 99.6151 12.3ZM108.167 3.33998C109.634 3.33998 110.754 3.65998 111.527 4.29998C112.314 4.92665 112.707 5.89331 112.707 7.19998V14.48H110.627L110.047 13H109.967C109.66 13.3866 109.34 13.7066 109.007 13.96C108.687 14.2133 108.314 14.3933 107.887 14.5C107.474 14.62 106.96 14.68 106.347 14.68C105.707 14.68 105.127 14.56 104.607 14.32C104.1 14.0666 103.7 13.6866 103.407 13.18C103.114 12.66 102.967 12.0066 102.967 11.22C102.967 10.06 103.374 9.20665 104.187 8.65998C105 8.09998 106.22 7.79331 107.847 7.73998L109.747 7.67998V7.19998C109.747 6.62665 109.594 6.20665 109.287 5.93998C108.994 5.67331 108.58 5.53998 108.047 5.53998C107.514 5.53998 106.994 5.61998 106.487 5.77998C105.98 5.92665 105.474 6.11331 104.967 6.33998L103.987 4.31998C104.574 4.01331 105.22 3.77331 105.927 3.59998C106.647 3.42665 107.394 3.33998 108.167 3.33998ZM108.587 9.45998C107.627 9.48665 106.96 9.65998 106.587 9.97998C106.214 10.3 106.027 10.72 106.027 11.24C106.027 11.6933 106.16 12.02 106.427 12.22C106.694 12.4066 107.04 12.5 107.467 12.5C108.107 12.5 108.647 12.3133 109.087 11.94C109.527 11.5533 109.747 11.0133 109.747 10.32V9.41998L108.587 9.45998ZM123.357 14.48H114.737V12.72L119.797 5.83998H115.037V3.55998H123.177V5.49998L118.257 12.2H123.357V14.48Z" fill="#007F5B"/>
</svg>
