<svg width="21" height="19" viewBox="0 0 21 19" fill="none" xmlns="http://www.w3.org/2000/svg">
<path d="M21 7.125C21 7.64418 20.846 8.15169 20.5576 8.58337C20.2692 9.01505 19.8592 9.3515 19.3795 9.55018C18.8999 9.74886 18.3721 9.80085 17.8629 9.69956C17.3537 9.59828 16.886 9.34827 16.5188 8.98116C16.1517 8.61404 15.9017 8.14631 15.8004 7.63711C15.6992 7.12791 15.7511 6.60011 15.9498 6.12046C16.1485 5.6408 16.485 5.23083 16.9166 4.94239C17.3483 4.65395 17.8558 4.5 18.375 4.5C19.0712 4.5 19.7389 4.77656 20.2312 5.26885C20.7234 5.76113 21 6.42881 21 7.125ZM5.25 7.125C5.25 6.60582 5.09605 6.09831 4.80761 5.66663C4.51917 5.23495 4.1092 4.8985 3.62955 4.69982C3.14989 4.50114 2.62209 4.44915 2.11289 4.55044C1.60369 4.65173 1.13596 4.90173 0.768846 5.26885C0.401733 5.63596 0.151726 6.10369 0.0504398 6.61289C-0.0508464 7.12209 0.00113737 7.64989 0.199817 8.12954C0.398497 8.6092 0.73495 9.01917 1.16663 9.30761C1.59831 9.59605 2.10583 9.75 2.625 9.75C3.32119 9.75 3.98887 9.47344 4.48116 8.98116C4.97344 8.48887 5.25 7.82119 5.25 7.125ZM7.125 5.25C7.64418 5.25 8.15169 5.09605 8.58337 4.80761C9.01505 4.51917 9.35151 4.1092 9.55019 3.62954C9.74887 3.14989 9.80085 2.62209 9.69956 2.11289C9.59828 1.60369 9.34827 1.13596 8.98116 0.768846C8.61404 0.401733 8.14631 0.151726 7.63711 0.0504398C7.12791 -0.0508464 6.60011 0.00113737 6.12046 0.199817C5.6408 0.398497 5.23083 0.73495 4.94239 1.16663C4.65395 1.59831 4.5 2.10583 4.5 2.625C4.5 3.32119 4.77656 3.98887 5.26885 4.48116C5.76113 4.97344 6.42881 5.25 7.125 5.25ZM13.875 5.25C14.3942 5.25 14.9017 5.09605 15.3334 4.80761C15.7651 4.51917 16.1015 4.1092 16.3002 3.62954C16.4989 3.14989 16.5508 2.62209 16.4496 2.11289C16.3483 1.60369 16.0983 1.13596 15.7312 0.768846C15.364 0.401733 14.8963 0.151726 14.3871 0.0504398C13.8779 -0.0508464 13.3501 0.00113737 12.8705 0.199817C12.3908 0.398497 11.9808 0.73495 11.6924 1.16663C11.404 1.59831 11.25 2.10583 11.25 2.625C11.25 3.32119 11.5266 3.98887 12.0188 4.48116C12.5111 4.97344 13.1788 5.25 13.875 5.25ZM16.0425 10.9556C15.6615 10.7455 15.3258 10.4622 15.0544 10.1222C14.783 9.78209 14.5813 9.39184 14.4609 8.97375C14.2116 8.11617 13.6906 7.36269 12.9763 6.82654C12.2621 6.29039 11.3931 6.00053 10.5 6.00053C9.6069 6.00053 8.73792 6.29039 8.02366 6.82654C7.3094 7.36269 6.78843 8.11617 6.53906 8.97375C6.29818 9.81503 5.73345 10.5264 4.96875 10.9519C4.23518 11.3488 3.65487 11.979 3.31962 12.7427C2.98437 13.5065 2.91331 14.3602 3.11768 15.1688C3.32205 15.9775 3.79018 16.6949 4.44804 17.2077C5.10589 17.7205 5.91592 17.9993 6.75 18C7.24984 18.0014 7.74479 17.9016 8.205 17.7066C9.67225 17.1015 11.3193 17.1015 12.7866 17.7066C13.6753 18.0931 14.6791 18.1205 15.5876 17.7832C16.4961 17.4458 17.2387 16.7698 17.6598 15.8969C18.0808 15.0241 18.1476 14.0221 17.8461 13.1011C17.5446 12.18 16.8982 11.4115 16.0425 10.9566V10.9556Z" fill="#171A17"/>
</svg>
