<svg width="24" height="24" viewBox="0 0 24 24" fill="none" xmlns="http://www.w3.org/2000/svg">
<path d="M22.5 10.125C22.5 10.6442 22.346 11.1517 22.0576 11.5834C21.7692 12.0151 21.3592 12.3515 20.8795 12.5502C20.3999 12.7489 19.8721 12.8008 19.3629 12.6996C18.8537 12.5983 18.386 12.3483 18.0188 11.9812C17.6517 11.614 17.4017 11.1463 17.3004 10.6371C17.1992 10.1279 17.2511 9.60011 17.4498 9.12046C17.6485 8.6408 17.985 8.23083 18.4166 7.94239C18.8483 7.65395 19.3558 7.5 19.875 7.5C20.5712 7.5 21.2389 7.77656 21.7312 8.26885C22.2234 8.76113 22.5 9.42881 22.5 10.125ZM6.75 10.125C6.75 9.60582 6.59605 9.09831 6.30761 8.66663C6.01917 8.23495 5.6092 7.8985 5.12955 7.69982C4.64989 7.50114 4.12209 7.44915 3.61289 7.55044C3.10369 7.65173 2.63596 7.90173 2.26885 8.26885C1.90173 8.63596 1.65173 9.10369 1.55044 9.61289C1.44915 10.1221 1.50114 10.6499 1.69982 11.1295C1.8985 11.6092 2.23495 12.0192 2.66663 12.3076C3.09831 12.596 3.60583 12.75 4.125 12.75C4.82119 12.75 5.48887 12.4734 5.98116 11.9812C6.47344 11.4889 6.75 10.8212 6.75 10.125ZM8.625 8.25C9.14418 8.25 9.65169 8.09605 10.0834 7.80761C10.5151 7.51917 10.8515 7.1092 11.0502 6.62954C11.2489 6.14989 11.3008 5.62209 11.1996 5.11289C11.0983 4.60369 10.8483 4.13596 10.4812 3.76885C10.114 3.40173 9.64631 3.15173 9.13711 3.05044C8.62791 2.94915 8.10011 3.00114 7.62046 3.19982C7.1408 3.3985 6.73083 3.73495 6.44239 4.16663C6.15395 4.59831 6 5.10583 6 5.625C6 6.32119 6.27656 6.98887 6.76885 7.48116C7.26113 7.97344 7.92881 8.25 8.625 8.25ZM15.375 8.25C15.8942 8.25 16.4017 8.09605 16.8334 7.80761C17.2651 7.51917 17.6015 7.1092 17.8002 6.62954C17.9989 6.14989 18.0508 5.62209 17.9496 5.11289C17.8483 4.60369 17.5983 4.13596 17.2312 3.76885C16.864 3.40173 16.3963 3.15173 15.8871 3.05044C15.3779 2.94915 14.8501 3.00114 14.3705 3.19982C13.8908 3.3985 13.4808 3.73495 13.1924 4.16663C12.904 4.59831 12.75 5.10583 12.75 5.625C12.75 6.32119 13.0266 6.98887 13.5188 7.48116C14.0111 7.97344 14.6788 8.25 15.375 8.25ZM17.5425 13.9556C17.1615 13.7455 16.8258 13.4622 16.5544 13.1222C16.283 12.7821 16.0813 12.3918 15.9609 11.9738C15.7116 11.1162 15.1906 10.3627 14.4763 9.82654C13.7621 9.29039 12.8931 9.00053 12 9.00053C11.1069 9.00053 10.2379 9.29039 9.52366 9.82654C8.8094 10.3627 8.28843 11.1162 8.03906 11.9738C7.79818 12.815 7.23345 13.5264 6.46875 13.9519C5.73518 14.3488 5.15487 14.979 4.81962 15.7427C4.48437 16.5065 4.41331 17.3602 4.61768 18.1688C4.82205 18.9775 5.29018 19.6949 5.94804 20.2077C6.60589 20.7205 7.41592 20.9993 8.25 21C8.74984 21.0014 9.24479 20.9016 9.705 20.7066C11.1722 20.1015 12.8193 20.1015 14.2866 20.7066C15.1753 21.0931 16.1791 21.1205 17.0876 20.7832C17.9961 20.4458 18.7387 19.7698 19.1598 18.8969C19.5808 18.0241 19.6476 17.0221 19.3461 16.1011C19.0446 15.18 18.3982 14.4115 17.5425 13.9566V13.9556Z" fill="white"/>
</svg>
