<svg width="20" height="20" viewBox="0 0 20 20" fill="none" xmlns="http://www.w3.org/2000/svg">
<path d="M11.2711 3.58837C11.2923 3.50905 11.329 3.43469 11.3789 3.36953C11.4289 3.30438 11.4912 3.24971 11.5623 3.20864C11.6334 3.16758 11.7119 3.14092 11.7933 3.13021C11.8747 3.11949 11.9574 3.12492 12.0367 3.14618C13.1954 3.44848 14.2525 4.05418 15.0992 4.9009C15.9459 5.74761 16.5516 6.80472 16.8539 7.96337C16.8752 8.04267 16.8806 8.12539 16.8699 8.2068C16.8592 8.2882 16.8325 8.3667 16.7915 8.4378C16.7504 8.5089 16.6957 8.57121 16.6306 8.62118C16.5654 8.67114 16.491 8.70778 16.4117 8.72899C16.3589 8.74286 16.3046 8.74995 16.25 8.75009C16.1124 8.75013 15.9786 8.70474 15.8694 8.62098C15.7602 8.53721 15.6817 8.41974 15.6461 8.28681C15.3997 7.34082 14.9054 6.47768 14.2142 5.78637C13.5231 5.09506 12.66 4.60061 11.7141 4.35399C11.6347 4.33286 11.5602 4.29628 11.495 4.24636C11.4298 4.19643 11.375 4.13413 11.3339 4.06302C11.2927 3.99191 11.266 3.91338 11.2552 3.83194C11.2445 3.75049 11.2499 3.66773 11.2711 3.58837ZM11.0891 6.85399C12.1664 7.14149 12.8586 7.83446 13.1461 8.91181C13.1817 9.04474 13.2602 9.16221 13.3694 9.24598C13.4786 9.32974 13.6124 9.37513 13.75 9.37509C13.8046 9.37495 13.8589 9.36786 13.9117 9.35399C13.991 9.33278 14.0654 9.29614 14.1306 9.24618C14.1957 9.19621 14.2504 9.1339 14.2915 9.0628C14.3325 8.9917 14.3592 8.9132 14.3699 8.8318C14.3806 8.75039 14.3752 8.66767 14.3539 8.58837C13.9539 7.09149 12.9086 6.04618 11.4117 5.64618C11.2516 5.60339 11.081 5.62598 10.9374 5.70898C10.7939 5.79198 10.6893 5.92859 10.6465 6.08876C10.6037 6.24892 10.6263 6.41953 10.7093 6.56304C10.7923 6.70655 10.9289 6.81121 11.0891 6.85399ZM16.7477 13.0048L13.0672 11.3556L13.057 11.3509C12.866 11.2691 12.6575 11.2364 12.4506 11.2554C12.2437 11.2745 12.0448 11.3449 11.8719 11.4602C11.8515 11.4737 11.832 11.4883 11.8133 11.504L9.91173 13.1251C8.70704 12.5399 7.46329 11.3056 6.87813 10.1165L8.50157 8.18602C8.51719 8.16649 8.53204 8.14696 8.5461 8.12587C8.65894 7.95345 8.72739 7.75581 8.74539 7.55053C8.76338 7.34526 8.73034 7.13873 8.64923 6.9493V6.93993L6.99532 3.25321C6.88809 3.00576 6.7037 2.79963 6.46968 2.66558C6.23567 2.53154 5.96458 2.47677 5.69688 2.50946C4.63826 2.64876 3.66655 3.16866 2.96324 3.97204C2.25992 4.77542 1.87309 5.80734 1.87501 6.87509C1.87501 13.0782 6.92188 18.1251 13.125 18.1251C14.1927 18.127 15.2247 17.7402 16.0281 17.0369C16.8314 16.3335 17.3513 15.3618 17.4906 14.3032C17.5234 14.0356 17.4687 13.7646 17.3348 13.5306C17.2009 13.2966 16.995 13.1121 16.7477 13.0048Z" fill="#007F5B"/>
</svg>
